# vtk DataFile Version 3.0
C:/Users/brint/Documents/NAWCAD/Flight Sims/Wireframe/TRV150
ASCII
DATASET POLYDATA
POINTS 196 float
   0.213092E+001  -0.379758E+001  -0.121392E+001
   0.216503E+001  -0.346209E+001  -0.121392E+001
   0.226599E+001  -0.314032E+001  -0.121392E+001
   0.242964E+001  -0.284547E+001  -0.121392E+001
   0.264931E+001  -0.258960E+001  -0.121392E+001
   0.291598E+001  -0.238318E+001  -0.121392E+001
   0.321874E+001  -0.223466E+001  -0.121392E+001
   0.354520E+001  -0.215014E+001  -0.121392E+001
   0.388200E+001  -0.213306E+001  -0.121392E+001
   0.421534E+001  -0.218412E+001  -0.121392E+001
   0.453157E+001  -0.230124E+001  -0.121392E+001
   0.481776E+001  -0.247962E+001  -0.121392E+001
   0.506218E+001  -0.271196E+001  -0.121392E+001
   0.525483E+001  -0.298875E+001  -0.121392E+001
   0.538782E+001  -0.329864E+001  -0.121392E+001
   0.545570E+001  -0.362897E+001  -0.121392E+001
   0.545570E+001  -0.396620E+001  -0.121392E+001
   0.538782E+001  -0.429652E+001  -0.121392E+001
   0.525483E+001  -0.460642E+001  -0.121392E+001
   0.506218E+001  -0.488320E+001  -0.121392E+001
   0.481776E+001  -0.511554E+001  -0.121392E+001
   0.453157E+001  -0.529392E+001  -0.121392E+001
   0.421534E+001  -0.541105E+001  -0.121392E+001
   0.388200E+001  -0.546211E+001  -0.121392E+001
   0.354520E+001  -0.544503E+001  -0.121392E+001
   0.321874E+001  -0.536050E+001  -0.121392E+001
   0.291598E+001  -0.521199E+001  -0.121392E+001
   0.264931E+001  -0.500557E+001  -0.121392E+001
   0.242964E+001  -0.474970E+001  -0.121392E+001
   0.226599E+001  -0.445484E+001  -0.121392E+001
   0.216503E+001  -0.413308E+001  -0.121392E+001
   0.213092E+001   0.379758E+001  -0.121392E+001
   0.216503E+001   0.413308E+001  -0.121392E+001
   0.226599E+001   0.445484E+001  -0.121392E+001
   0.242964E+001   0.474970E+001  -0.121392E+001
   0.264931E+001   0.500557E+001  -0.121392E+001
   0.291598E+001   0.521199E+001  -0.121392E+001
   0.321874E+001   0.536050E+001  -0.121392E+001
   0.354520E+001   0.544503E+001  -0.121392E+001
   0.388200E+001   0.546211E+001  -0.121392E+001
   0.421534E+001   0.541105E+001  -0.121392E+001
   0.453157E+001   0.529392E+001  -0.121392E+001
   0.481776E+001   0.511554E+001  -0.121392E+001
   0.506218E+001   0.488320E+001  -0.121392E+001
   0.525483E+001   0.460642E+001  -0.121392E+001
   0.538782E+001   0.429652E+001  -0.121392E+001
   0.545570E+001   0.396620E+001  -0.121392E+001
   0.545570E+001   0.362897E+001  -0.121392E+001
   0.538782E+001   0.329864E+001  -0.121392E+001
   0.525483E+001   0.298875E+001  -0.121392E+001
   0.506218E+001   0.271196E+001  -0.121392E+001
   0.481776E+001   0.247962E+001  -0.121392E+001
   0.453157E+001   0.230124E+001  -0.121392E+001
   0.421534E+001   0.218412E+001  -0.121392E+001
   0.388200E+001   0.213306E+001  -0.121392E+001
   0.354520E+001   0.215014E+001  -0.121392E+001
   0.321874E+001   0.223466E+001  -0.121392E+001
   0.291598E+001   0.238318E+001  -0.121392E+001
   0.264931E+001   0.258960E+001  -0.121392E+001
   0.242964E+001   0.284547E+001  -0.121392E+001
   0.226599E+001   0.314032E+001  -0.121392E+001
   0.216503E+001   0.346209E+001  -0.121392E+001
  -0.546425E+001   0.379758E+001  -0.121392E+001
  -0.543013E+001   0.413308E+001  -0.121392E+001
  -0.532918E+001   0.445484E+001  -0.121392E+001
  -0.516552E+001   0.474970E+001  -0.121392E+001
  -0.494586E+001   0.500557E+001  -0.121392E+001
  -0.467919E+001   0.521199E+001  -0.121392E+001
  -0.437643E+001   0.536050E+001  -0.121392E+001
  -0.404996E+001   0.544503E+001  -0.121392E+001
  -0.371317E+001   0.546211E+001  -0.121392E+001
  -0.337983E+001   0.541105E+001  -0.121392E+001
  -0.306359E+001   0.529392E+001  -0.121392E+001
  -0.277741E+001   0.511554E+001  -0.121392E+001
  -0.253299E+001   0.488320E+001  -0.121392E+001
  -0.234034E+001   0.460642E+001  -0.121392E+001
  -0.220735E+001   0.429652E+001  -0.121392E+001
  -0.213947E+001   0.396620E+001  -0.121392E+001
  -0.213947E+001   0.362897E+001  -0.121392E+001
  -0.220735E+001   0.329864E+001  -0.121392E+001
  -0.234034E+001   0.298875E+001  -0.121392E+001
  -0.253299E+001   0.271196E+001  -0.121392E+001
  -0.277741E+001   0.247962E+001  -0.121392E+001
  -0.306359E+001   0.230124E+001  -0.121392E+001
  -0.337983E+001   0.218412E+001  -0.121392E+001
  -0.371317E+001   0.213306E+001  -0.121392E+001
  -0.404996E+001   0.215014E+001  -0.121392E+001
  -0.437643E+001   0.223466E+001  -0.121392E+001
  -0.467919E+001   0.238318E+001  -0.121392E+001
  -0.494586E+001   0.258960E+001  -0.121392E+001
  -0.516552E+001   0.284547E+001  -0.121392E+001
  -0.532918E+001   0.314032E+001  -0.121392E+001
  -0.543013E+001   0.346209E+001  -0.121392E+001
  -0.546425E+001  -0.379758E+001  -0.121392E+001
  -0.543013E+001  -0.346209E+001  -0.121392E+001
  -0.532918E+001  -0.314032E+001  -0.121392E+001
  -0.516552E+001  -0.284547E+001  -0.121392E+001
  -0.494586E+001  -0.258960E+001  -0.121392E+001
  -0.467919E+001  -0.238318E+001  -0.121392E+001
  -0.437643E+001  -0.223466E+001  -0.121392E+001
  -0.404996E+001  -0.215014E+001  -0.121392E+001
  -0.371317E+001  -0.213306E+001  -0.121392E+001
  -0.337983E+001  -0.218412E+001  -0.121392E+001
  -0.306359E+001  -0.230124E+001  -0.121392E+001
  -0.277741E+001  -0.247962E+001  -0.121392E+001
  -0.253299E+001  -0.271196E+001  -0.121392E+001
  -0.234034E+001  -0.298875E+001  -0.121392E+001
  -0.220735E+001  -0.329864E+001  -0.121392E+001
  -0.213947E+001  -0.362897E+001  -0.121392E+001
  -0.213947E+001  -0.396620E+001  -0.121392E+001
  -0.220735E+001  -0.429652E+001  -0.121392E+001
  -0.234034E+001  -0.460642E+001  -0.121392E+001
  -0.253299E+001  -0.488320E+001  -0.121392E+001
  -0.277741E+001  -0.511554E+001  -0.121392E+001
  -0.306359E+001  -0.529392E+001  -0.121392E+001
  -0.337983E+001  -0.541105E+001  -0.121392E+001
  -0.371317E+001  -0.546211E+001  -0.121392E+001
  -0.404996E+001  -0.544503E+001  -0.121392E+001
  -0.437643E+001  -0.536050E+001  -0.121392E+001
  -0.467919E+001  -0.521199E+001  -0.121392E+001
  -0.494586E+001  -0.500557E+001  -0.121392E+001
  -0.516552E+001  -0.474970E+001  -0.121392E+001
  -0.532918E+001  -0.445484E+001  -0.121392E+001
  -0.543013E+001  -0.413308E+001  -0.121392E+001
  -0.161842E+001  -0.161842E+001  -0.121392E+001
   0.161842E+001  -0.161842E+001  -0.121392E+001
   0.161842E+001   0.161842E+001  -0.121392E+001
  -0.161842E+001   0.161842E+001  -0.121392E+001
  -0.161842E+001  -0.161842E+001   0.121392E+001
   0.161842E+001  -0.161842E+001   0.121392E+001
   0.161842E+001   0.161842E+001   0.121392E+001
  -0.161842E+001   0.161842E+001   0.121392E+001
   0.379762E+001  -0.379762E+001  -0.113058E+001
   0.383929E+001  -0.375595E+001  -0.110618E+001
   0.385655E+001  -0.373870E+001  -0.104725E+001
   0.383929E+001  -0.375595E+001  -0.988324E+000
   0.379762E+001  -0.379762E+001  -0.963917E+000
   0.375595E+001  -0.383929E+001  -0.988324E+000
   0.373870E+001  -0.385655E+001  -0.104725E+001
   0.375595E+001  -0.383929E+001  -0.110618E+001
   0.453864E-004  -0.453864E-004  -0.113058E+001
   0.417121E-001   0.416213E-001  -0.110618E+001
   0.589710E-001   0.588802E-001  -0.104725E+001
   0.417121E-001   0.416213E-001  -0.988324E+000
   0.453864E-004  -0.453864E-004  -0.963917E+000
  -0.416213E-001  -0.417121E-001  -0.988324E+000
  -0.588802E-001  -0.589710E-001  -0.104725E+001
  -0.416213E-001  -0.417121E-001  -0.110618E+001
   0.379762E+001   0.379762E+001  -0.113058E+001
   0.375595E+001   0.383929E+001  -0.110618E+001
   0.373870E+001   0.385655E+001  -0.104725E+001
   0.375595E+001   0.383929E+001  -0.988324E+000
   0.379762E+001   0.379762E+001  -0.963917E+000
   0.383929E+001   0.375595E+001  -0.988324E+000
   0.385655E+001   0.373870E+001  -0.104725E+001
   0.383929E+001   0.375595E+001  -0.110618E+001
   0.453864E-004   0.453864E-004  -0.113058E+001
  -0.416213E-001   0.417121E-001  -0.110618E+001
  -0.588802E-001   0.589710E-001  -0.104725E+001
  -0.416213E-001   0.417121E-001  -0.988324E+000
   0.453864E-004   0.453864E-004  -0.963917E+000
   0.417121E-001  -0.416213E-001  -0.988324E+000
   0.589710E-001  -0.588802E-001  -0.104725E+001
   0.417121E-001  -0.416213E-001  -0.110618E+001
  -0.379762E+001   0.379762E+001  -0.113058E+001
  -0.383929E+001   0.375595E+001  -0.110618E+001
  -0.385655E+001   0.373870E+001  -0.104725E+001
  -0.383929E+001   0.375595E+001  -0.988324E+000
  -0.379762E+001   0.379762E+001  -0.963917E+000
  -0.375595E+001   0.383929E+001  -0.988324E+000
  -0.373870E+001   0.385655E+001  -0.104725E+001
  -0.375595E+001   0.383929E+001  -0.110618E+001
  -0.453864E-004   0.453864E-004  -0.113058E+001
  -0.417121E-001  -0.416213E-001  -0.110618E+001
  -0.589710E-001  -0.588802E-001  -0.104725E+001
  -0.417121E-001  -0.416213E-001  -0.988324E+000
  -0.453864E-004   0.453864E-004  -0.963917E+000
   0.416213E-001   0.417121E-001  -0.988324E+000
   0.588802E-001   0.589710E-001  -0.104725E+001
   0.416213E-001   0.417121E-001  -0.110618E+001
  -0.379762E+001  -0.379762E+001  -0.113058E+001
  -0.375595E+001  -0.383929E+001  -0.110618E+001
  -0.373870E+001  -0.385655E+001  -0.104725E+001
  -0.375595E+001  -0.383929E+001  -0.988324E+000
  -0.379762E+001  -0.379762E+001  -0.963917E+000
  -0.383929E+001  -0.375595E+001  -0.988324E+000
  -0.385655E+001  -0.373870E+001  -0.104725E+001
  -0.383929E+001  -0.375595E+001  -0.110618E+001
  -0.453864E-004  -0.453864E-004  -0.113058E+001
   0.416213E-001  -0.417121E-001  -0.110618E+001
   0.588802E-001  -0.589710E-001  -0.104725E+001
   0.416213E-001  -0.417121E-001  -0.988324E+000
  -0.453864E-004  -0.453864E-004  -0.963917E+000
  -0.417121E-001   0.416213E-001  -0.988324E+000
  -0.589710E-001   0.588802E-001  -0.104725E+001
  -0.417121E-001   0.416213E-001  -0.110618E+001
LINES 232 696
2 0 1
2 1 2
2 2 3
2 3 4
2 4 5
2 5 6
2 6 7
2 7 8
2 8 9
2 9 10
2 10 11
2 11 12
2 12 13
2 13 14
2 14 15
2 15 16
2 16 17
2 17 18
2 18 19
2 19 20
2 20 21
2 21 22
2 22 23
2 23 24
2 24 25
2 25 26
2 26 27
2 27 28
2 28 29
2 29 30
2 30 0
2 31 32
2 32 33
2 33 34
2 34 35
2 35 36
2 36 37
2 37 38
2 38 39
2 39 40
2 40 41
2 41 42
2 42 43
2 43 44
2 44 45
2 45 46
2 46 47
2 47 48
2 48 49
2 49 50
2 50 51
2 51 52
2 52 53
2 53 54
2 54 55
2 55 56
2 56 57
2 57 58
2 58 59
2 59 60
2 60 61
2 61 31
2 62 63
2 63 64
2 64 65
2 65 66
2 66 67
2 67 68
2 68 69
2 69 70
2 70 71
2 71 72
2 72 73
2 73 74
2 74 75
2 75 76
2 76 77
2 77 78
2 78 79
2 79 80
2 80 81
2 81 82
2 82 83
2 83 84
2 84 85
2 85 86
2 86 87
2 87 88
2 88 89
2 89 90
2 90 91
2 91 92
2 92 62
2 93 94
2 94 95
2 95 96
2 96 97
2 97 98
2 98 99
2 99 100
2 100 101
2 101 102
2 102 103
2 103 104
2 104 105
2 105 106
2 106 107
2 107 108
2 108 109
2 109 110
2 110 111
2 111 112
2 112 113
2 113 114
2 114 115
2 115 116
2 116 117
2 117 118
2 118 119
2 119 120
2 120 121
2 121 122
2 122 123
2 123 93
2 124 125
2 125 126
2 126 127
2 124 127
2 124 128
2 125 129
2 126 130
2 127 131
2 128 129
2 129 130
2 130 131
2 128 131
2 132 133
2 133 134
2 134 135
2 135 136
2 136 137
2 137 138
2 138 139
2 132 139
2 132 140
2 133 141
2 134 142
2 135 143
2 136 144
2 137 145
2 138 146
2 139 147
2 140 141
2 141 142
2 142 143
2 143 144
2 144 145
2 145 146
2 146 147
2 140 147
2 148 149
2 149 150
2 150 151
2 151 152
2 152 153
2 153 154
2 154 155
2 148 155
2 148 156
2 149 157
2 150 158
2 151 159
2 152 160
2 153 161
2 154 162
2 155 163
2 156 157
2 157 158
2 158 159
2 159 160
2 160 161
2 161 162
2 162 163
2 156 163
2 164 165
2 165 166
2 166 167
2 167 168
2 168 169
2 169 170
2 170 171
2 164 171
2 164 172
2 165 173
2 166 174
2 167 175
2 168 176
2 169 177
2 170 178
2 171 179
2 172 173
2 173 174
2 174 175
2 175 176
2 176 177
2 177 178
2 178 179
2 172 179
2 180 181
2 181 182
2 182 183
2 183 184
2 184 185
2 185 186
2 186 187
2 180 187
2 180 188
2 181 189
2 182 190
2 183 191
2 184 192
2 185 193
2 186 194
2 187 195
2 188 189
2 189 190
2 190 191
2 191 192
2 192 193
2 193 194
2 194 195
2 188 195

